#!OML:ASF H:\Punching\Project 1\Capture day 1\Session 1\female.ASF
:FULLY-SPECIFIED
:DEGREES
2194
root 2.63759 15.6188 -0.622863 -172.909 305.748 -175.881
lowerback -7.67589 3.74462 2.3821
upperback -6.60496 4.49317 -1.83822
thorax -2.21613 1.98037 -2.96188
lowerneck -7.74737 12.1642 19.4662
upperneck 34.1791 17.1172 -14.2756
head 16.9023 7.57487 -6.71602
rclavicle -2.43511e-014 3.4191e-014
rhumerus -33.4837 -7.90705 -81.8718
rradius 25.7547
rwrist 11.697
rhand -16.9889 -3.2803
rfingers 7.12502
rthumb 9.24601 -33.0576
lclavicle -2.43511e-014 3.4191e-014
lhumerus -50.1387 4.62493 72.4433
lradius 36.0016
lwrist -14.2438
lhand -5.57632 12.6982
lfingers 7.12502
lthumb 20.2396 41.6638
rfemur -9.89373 -10.237 27.9009
rtibia 39.1892
rfoot -18.907 -15.6865
rtoes -28.5867
lfemur -28.1818 1.5473 -28.2723
ltibia 28.254
lfoot -18.2329 24.5169
ltoes 19.1916
2195
root 2.58334 15.6322 -0.678364 -172.967 305.098 -176.114
lowerback -7.56392 3.67825 2.09742
upperback -6.57576 4.42667 -1.87638
thorax -2.26921 1.95827 -2.85332
lowerneck -7.66262 12.2086 19.5405
upperneck 34.1497 17.1977 -14.28
head 16.8978 7.6258 -6.71199
rclavicle -1.19867e-013 -2.94201e-014
rhumerus -33.4825 -7.64729 -82.4866
rradius 25.9307
rwrist 11.6786
rhand -16.7046 -3.13045
rfingers 7.12502
rthumb 9.52038 -32.8954
lclavicle -1.19867e-013 -2.94201e-014
lhumerus -50.0836 4.55489 72.6137
lradius 35.9885
lwrist -14.1888
lhand -5.45173 12.7184
lfingers 7.12502
lthumb 20.3593 41.6711
rfemur -10.6075 -10.7151 27.4925
rtibia 41.3927
rfoot -17.8342 -14.7653
rtoes -28.7852
lfemur -27.2702 1.53232 -28.4125
ltibia 27.6435
lfoot -18.086 23.9862
ltoes 18.6946
2196
root 2.53074 15.6469 -0.730397 -172.93 304.524 -176.379
lowerback -7.47875 3.63544 1.81334
upperback -6.562 4.38824 -1.91715
thorax -2.32143 1.94919 -2.74475
lowerneck -7.58126 12.2581 19.6016
upperneck 34.105 17.2916 -14.2948
head 16.8891 7.67972 -6.7063
rclavicle 3.04141e-014 1.59028e-015
rhumerus -33.4486 -7.24408 -83.1387
rradius 26.1437
rwrist 11.5598
rhand -16.4301 -3.0104
rfingers 7.12502
rthumb 9.78522 -32.763
lclavicle 3.04141e-014 1.59028e-015
lhumerus -50.0231 4.44175 72.8323
lradius 36.0091
lwrist -14.1381
lhand -5.29449 12.7202
lfingers 7.12502
lthumb 20.5104 41.6568
rfemur -11.4452 -11.0488 27.0531
rtibia 43.5552
rfoot -16.5609 -13.7999
rtoes -28.4946
lfemur -26.4154 1.56806 -28.5861
ltibia 26.9692
lfoot -17.9355 23.4879
ltoes 18.2515
2197
root 2.48004 15.6624 -0.779829 -172.846 303.996 -176.645
lowerback -7.403 3.60943 1.54287
upperback -6.55897 4.36967 -1.95579
thorax -2.37766 1.94904 -2.64008
lowerneck -7.49812 12.3084 19.6728
upperneck 34.0407 17.3962 -14.3445
head 16.8792 7.7362 -6.71535
rclavicle 2.88238e-015 3.33958e-014
rhumerus -33.3896 -6.71955 -83.8149
rradius 26.3981
rwrist 11.3409
rhand -16.1506 -2.91346
rfingers 7.12502
rthumb 10.0548 -32.6533
lclavicle 2.88238e-015 3.33958e-014
lhumerus -49.9576 4.27109 73.0915
lradius 36.0628
lwrist -14.1105
lhand -5.09459 12.6872
lfingers 7.12502
lthumb 20.7025 41.603
rfemur -12.3708 -11.2468 26.6113
rtibia 45.6529
rfoot -15.1683 -12.8021
rtoes -27.7527
lfemur -25.5956 1.6103 -28.762
ltibia 26.2378
lfoot -17.7674 23.0401
ltoes 17.815
2198
root 2.43155 15.6777 -0.824172 -172.684 303.548 -176.909
lowerback -7.34503 3.62024 1.31694
upperback -6.58326 4.39451 -2.00292
thorax -2.44654 1.96751 -2.56632
lowerneck -7.42161 12.3577 19.7466
upperneck 33.9643 17.5073 -14.4217
head 16.871 7.79292 -6.73539
rclavicle 1.07344e-014 -3.89618e-014
rhumerus -33.3211 -6.07318 -84.5154
rradius 26.6988
rwrist 11.026
rhand -15.9057 -2.84852
rfingers 7.12502
rthumb 10.2912 -32.5767
lclavicle 1.07344e-014 -3.89618e-014
lhumerus -49.8784 4.05903 73.3834
lradius 36.136
lwrist -14.1344
lhand -4.87276 12.6225
lfingers 7.12502
lthumb 20.9157 41.5149
rfemur -13.4342 -11.3044 26.1649
rtibia 47.6771
rfoot -13.7378 -11.7765
rtoes -26.6527
lfemur -24.863 1.63286 -28.9415
ltibia 25.4592
lfoot -17.5812 22.6822
ltoes 17.3882
2199
root 2.38482 15.6917 -0.867368 -172.481 303.042 -177.237
lowerback -7.25908 3.61208 1.06367
upperback -6.59871 4.39617 -2.05308
thorax -2.52483 1.97585 -2.48337
lowerneck -7.34648 12.4048 19.8106
upperneck 33.8727 17.6209 -14.5116
head 16.8563 7.84848 -6.75805
rclavicle 3.27995e-015 3.97569e-015
rhumerus -33.2446 -5.311 -85.2216
rradius 27.0488
rwrist 10.6199
rhand -15.6918 -2.80128
rfingers 7.12502
rthumb 10.4975 -32.5192
lclavicle 3.27995e-015 3.97569e-015
lhumerus -49.7911 3.79043 73.7166
lradius 36.2431
lwrist -14.1655
lhand -4.64205 12.5478
lfingers 7.12502
lthumb 21.1373 41.4156
rfemur -14.4832 -11.3331 25.6872
rtibia 49.6038
rfoot -12.4369 -10.8393
rtoes -25.3147
lfemur -24.1086 1.60669 -29.1491
ltibia 24.6509
lfoot -17.3642 22.315
ltoes 16.928
2200
root 2.33965 15.7037 -0.908619 -172.21 302.454 -177.651
lowerback -7.13991 3.58132 0.79784
upperback -6.61281 4.36785 -2.12207
thorax -2.62112 1.96939 -2.41656
lowerneck -7.27461 12.4485 19.8723
upperneck 33.7745 17.7301 -14.6044
head 16.838 7.90182 -6.78197
rclavicle 1.51076e-014 -1.51076e-014
rhumerus -33.175 -4.51635 -85.9188
rradius 27.4406
rwrist 10.1995
rhand -15.5195 -2.76137
rfingers 7.12502
rthumb 10.6637 -32.4708
lclavicle 1.51076e-014 -1.51076e-014
lhumerus -49.6945 3.47638 74.0615
lradius 36.3732
lwrist -14.2235
lhand -4.40623 12.4625
lfingers 7.12502
lthumb 21.3638 41.3048
rfemur -15.5119 -11.3778 25.164
rtibia 51.4273
rfoot -11.3864 -10.0717
rtoes -23.8673
lfemur -23.3465 1.49093 -29.3941
ltibia 23.8319
lfoot -17.1181 21.9491
ltoes 16.4453
2201
root 2.29695 15.7137 -0.94926 -171.863 301.787 -178.133
lowerback -7.01026 3.53197 0.512128
upperback -6.63315 4.31378 -2.20454
thorax -2.73135 1.95023 -2.35476
lowerneck -7.20872 12.4857 19.9282
upperneck 33.672 17.8285 -14.6943
head 16.815 7.95035 -6.8053
rclavicle 6.40087e-014 9.54166e-015
rhumerus -33.1179 -3.71626 -86.5974
rradius 27.8762
rwrist 9.77229
rhand -15.3944 -2.74163
rfingers 7.12502
rthumb 10.7843 -32.4448
lclavicle 6.40087e-014 9.54166e-015
lhumerus -49.5886 3.11515 74.4129
lradius 36.5279
lwrist -14.3061
lhand -4.17212 12.3649
lfingers 7.12502
lthumb 21.5887 41.1815
rfemur -16.5364 -11.433 24.6253
rtibia 53.1339
rfoot -10.6409 -9.57504
rtoes -22.501
lfemur -22.6182 1.31441 -29.6596
ltibia 23.0227
lfoot -16.8346 21.5631
ltoes 15.9312
2202
root 2.25677 15.7216 -0.98971 -171.45 301.04 -178.663
lowerback -6.88022 3.45875 0.207065
upperback -6.65587 4.22708 -2.28838
thorax -2.84682 1.91544 -2.28512
lowerneck -7.14755 12.5194 19.9772
upperneck 33.5636 17.923 -14.7874
head 16.7887 7.99618 -6.82909
rclavicle 5.03919e-014 6.36111e-015
rhumerus -33.0658 -2.89961 -87.2531
rradius 28.3447
rwrist 9.33644
rhand -15.329 -2.73469
rfingers 7.12502
rthumb 10.8474 -32.4345
lclavicle 5.03919e-014 6.36111e-015
lhumerus -49.4729 2.74136 74.7628
lradius 36.7038
lwrist -14.4148
lhand -3.95585 12.2584
lfingers 7.12502
lthumb 21.7964 41.0511
rfemur -17.5535 -11.4893 24.0867
rtibia 54.7158
rfoot -10.2121 -9.40271
rtoes -21.3137
lfemur -21.942 1.07241 -29.9294
ltibia 22.2552
lfoot -16.5319 21.1584
ltoes 15.4123
2203
root 2.21946 15.7276 -1.03088 -171.001 300.225 -179.201
lowerback -6.76011 3.36659 -0.109288
upperback -6.67875 4.11441 -2.36204
thorax -2.9591 1.86854 -2.19893
lowerneck -7.09264 12.5479 20.0184
upperneck 33.4486 18.012 -14.8871
head 16.759 8.03803 -6.85528
rclavicle 3.33958e-014 -2.94201e-014
rhumerus -33.0152 -2.12132 -87.8645
rradius 28.8361
rwrist 8.93761
rhand -15.3081 -2.71826
rfingers 7.12502
rthumb 10.8676 -32.4171
lclavicle 3.33958e-014 -2.94201e-014
lhumerus -49.3401 2.37472 75.1003
lradius 36.8932
lwrist -14.5547
lhand -3.76855 12.1431
lfingers 7.12502
lthumb 21.9762 40.9147
rfemur -18.5651 -11.5278 23.5795
rtibia 56.1609
rfoot -10.0574 -9.55238
rtoes -20.2918
lfemur -21.3422 0.788976 -30.176
ltibia 21.5642
lfoot -16.2241 20.7292
ltoes 14.8847
2204
root 2.18472 15.732 -1.07343 -170.568 299.353 -179.7
lowerback -6.65007 3.25882 -0.421915
upperback -6.69414 3.98111 -2.41123
thorax -3.05946 1.81244 -2.08908
lowerneck -7.04736 12.5725 20.0426
upperneck 33.3278 18.0985 -14.9927
head 16.7265 8.076 -6.88109
rclavicle 4.29375e-014 3.97569e-015
rhumerus -32.97 -1.35662 -88.4324
rradius 29.356
rwrist 8.53539
rhand -15.3403 -2.71384
rfingers 7.12502
rthumb 10.8366 -32.4143
lclavicle 4.29375e-014 3.97569e-015
lhumerus -49.1807 2.04188 75.4285
lradius 37.087
lwrist -14.7181
lhand -3.63132 12.0266
lfingers 7.12502
lthumb 22.108 40.7827
rfemur -19.5552 -11.5368 23.1256
rtibia 57.4545
rfoot -10.1097 -9.94782
rtoes -19.3469
lfemur -20.8187 0.475561 -30.3702
ltibia 20.9763
lfoot -15.9372 20.2746
ltoes 14.3825
